<svg fill="none" xmlns="http://www.w3.org/2000/svg" viewBox="0 0 126 36" class="design-iconfont">
  <g filter="url(#353z6m025__filter0_i_632_28374)">
    <path d="M18.4982 6.99219C18.4982 5.33533 19.8413 3.99219 21.4981 3.99219L121.115 3.99237C122.94 3.99237 124.343 5.60854 124.085 7.41547L122.06 22.277C121.428 26.7124 117.63 30.0077 113.15 30.0077L21.4981 30.0076C19.8413 30.0076 18.4982 28.6644 18.4982 27.0076L18.4982 6.99219Z" fill="url(#353z6m025__paint0_linear_632_28374)"/>
  </g>
  <g filter="url(#353z6m025__filter1_di_632_28374)" fill="#FFD900">
    <path d="M43.4833 22.5051L45.3312 10.8726H50.2481C51.6561 10.8726 52.7066 11.1751 53.3996 11.7801C54.1035 12.3741 54.4555 13.1936 54.4555 14.2386C54.4555 15.6026 54.0376 16.6531 53.2016 17.3901C52.3766 18.1271 51.1776 18.4956 49.6046 18.4956H47.1627L46.5192 22.5051H43.4833ZM47.5257 16.1691H49.7201C50.9521 16.1691 51.5681 15.6136 51.5681 14.5026C51.5681 13.6336 50.9906 13.1991 49.8356 13.1991H47.9877L47.5257 16.1691Z"/>
    <path d="M54.5743 22.5051L55.8613 14.3871H58.7157L58.4847 15.8061C58.7377 15.3331 59.0842 14.9591 59.5242 14.6841C59.9752 14.4091 60.5032 14.2496 61.1082 14.2056L61.9001 14.1561L61.7681 16.6311L59.9367 16.8126C59.3537 16.8676 58.9357 17.0326 58.6827 17.3076C58.4297 17.5826 58.2592 18.0116 58.1712 18.5946L57.5607 22.5051H54.5743Z"/>
    <path d="M66.4703 22.6866C65.6013 22.6866 64.8424 22.5326 64.1934 22.2246C63.5444 21.9056 63.0384 21.4601 62.6754 20.8881C62.3124 20.3161 62.1309 19.6506 62.1309 18.8916C62.1309 17.9566 62.3344 17.1371 62.7414 16.4331C63.1594 15.7291 63.7204 15.1846 64.4244 14.7996C65.1283 14.4036 65.9203 14.2056 66.8003 14.2056C67.7243 14.2056 68.4668 14.4036 69.0278 14.7996C69.5998 15.1846 69.9957 15.7126 70.2157 16.3836C70.4357 17.0546 70.4907 17.7971 70.3807 18.6111L70.3147 19.0401H64.8534C64.8754 19.5241 65.0568 19.8926 65.3978 20.1456C65.7388 20.3986 66.2063 20.5251 66.8003 20.5251C67.2513 20.5251 67.6913 20.4646 68.1203 20.3436C68.5603 20.2116 68.9398 20.0301 69.2588 19.7991L69.8692 21.7131C69.4623 22.0211 68.9618 22.2631 68.3678 22.4391C67.7848 22.6041 67.1523 22.6866 66.4703 22.6866ZM66.7673 16.1196C66.2723 16.1196 65.8818 16.2681 65.5958 16.5651C65.3208 16.8621 65.1338 17.2251 65.0348 17.6541H68.1533C68.1753 17.2031 68.0708 16.8346 67.8398 16.5486C67.6198 16.2626 67.2623 16.1196 66.7673 16.1196Z"/>
    <path d="M71.3847 22.5051L72.6716 14.3871H75.5261L75.3446 15.5091C75.6746 15.0471 76.0596 14.7171 76.4996 14.5191C76.9506 14.3101 77.407 14.2056 77.869 14.2056C78.947 14.2056 79.6895 14.6896 80.0965 15.6576C80.4045 15.1736 80.795 14.8106 81.268 14.5686C81.7519 14.3266 82.2909 14.2056 82.8849 14.2056C83.7429 14.2056 84.4029 14.4806 84.8649 15.0306C85.3379 15.5806 85.4809 16.4716 85.2939 17.7036L84.5349 22.5051H81.598L82.3404 17.7366C82.4724 16.8786 82.2249 16.4496 81.598 16.4496C81.202 16.4496 80.872 16.6036 80.608 16.9116C80.355 17.2086 80.1845 17.6321 80.0965 18.1821L79.42 22.5051H76.4831L77.242 17.7366C77.374 16.8786 77.121 16.4496 76.4831 16.4496C76.0981 16.4496 75.7736 16.6036 75.5096 16.9116C75.2566 17.2086 75.0861 17.6321 74.9981 18.1821L74.3216 22.5051H71.3847Z"/>
    <path d="M87.9755 12.9846L88.4045 10.3281H91.4899L91.0609 12.9846H87.9755ZM86.54 22.5051L87.827 14.3871H90.7639L89.477 22.5051H86.54Z"/>
    <path d="M94.3845 22.6866C93.8015 22.6866 93.3065 22.5656 92.8995 22.3236C92.4925 22.0816 92.201 21.7021 92.025 21.1851C91.849 20.6681 91.827 20.0026 91.959 19.1886L92.718 14.3871H95.6549L94.9125 19.1391C94.7695 20.0081 95.039 20.4426 95.7209 20.4426C96.1499 20.4426 96.5074 20.2886 96.7934 19.9806C97.0794 19.6726 97.2664 19.2436 97.3544 18.6936L98.0309 14.3871H100.968L99.6809 22.5051H96.8099L96.9914 21.3501C96.7054 21.7901 96.3369 22.1256 95.8859 22.3566C95.435 22.5766 94.9345 22.6866 94.3845 22.6866Z"/>
    <path d="M101.723 22.5051L103.01 14.3871H105.864L105.683 15.5091C106.013 15.0471 106.398 14.7171 106.838 14.5191C107.289 14.3101 107.745 14.2056 108.207 14.2056C109.285 14.2056 110.028 14.6896 110.435 15.6576C110.743 15.1736 111.133 14.8106 111.606 14.5686C112.09 14.3266 112.629 14.2056 113.223 14.2056C114.081 14.2056 114.741 14.4806 115.203 15.0306C115.676 15.5806 115.819 16.4716 115.632 17.7036L114.873 22.5051H111.936L112.679 17.7366C112.811 16.8786 112.563 16.4496 111.936 16.4496C111.54 16.4496 111.21 16.6036 110.946 16.9116C110.693 17.2086 110.523 17.6321 110.435 18.1821L109.758 22.5051H106.821L107.58 17.7366C107.712 16.8786 107.459 16.4496 106.821 16.4496C106.436 16.4496 106.112 16.6036 105.848 16.9116C105.595 17.2086 105.424 17.6321 105.336 18.1821L104.66 22.5051H101.723Z"/>
  </g>
  <path d="M10.0559 3.36346C10.3677 2.94777 10.857 2.70312 11.3766 2.70312H29.2112C29.7308 2.70312 30.2201 2.94777 30.5319 3.36346L37.5601 12.7347C38.0392 13.3734 37.9925 14.2634 37.4492 14.8485L20.8988 32.6724C20.5722 33.0241 20.0156 33.0241 19.6891 32.6724L3.13862 14.8485C2.59536 14.2634 2.54864 13.3734 3.02768 12.7347L10.0559 3.36346Z" fill="#363636"/>
  <path fill-rule="evenodd" clip-rule="evenodd" d="M13.0689 10.2344L19.8766 17.723L26.6842 10.2344L30.0156 13.2629L19.8766 24.4161L9.73755 13.2629L13.0689 10.2344Z" fill="url(#353z6m025__paint1_linear_632_28374)"/>
  <defs>
    <linearGradient id="353z6m025__paint0_linear_632_28374" x1="122.111" y1="15.9465" x2="40.6785" y2="15.9899" gradientUnits="userSpaceOnUse">
      <stop stop-color="#121212"/>
      <stop offset=".455079" stop-color="#262626"/>
      <stop offset="1" stop-color="#1B1B1B"/>
    </linearGradient>
    <linearGradient id="353z6m025__paint1_linear_632_28374" x1="12.9175" y1="20.7151" x2="26.1008" y2="12.9225" gradientUnits="userSpaceOnUse">
      <stop offset=".0260417" stop-color="#FFDA51"/>
      <stop offset=".192708" stop-color="#FFCD5D"/>
      <stop offset=".541667" stop-color="#FFF55F"/>
      <stop offset=".875" stop-color="#FFEC80"/>
      <stop offset="1" stop-color="#FFEC7F"/>
    </linearGradient>
    <filter id="353z6m025__filter0_i_632_28374" x="18.4982" y="3.99219" width="105.618" height="26.0156" filterUnits="userSpaceOnUse" color-interpolation-filters="sRGB">
      <feFlood flood-opacity="0" result="BackgroundImageFix"/>
      <feBlend in="SourceGraphic" in2="BackgroundImageFix" result="shape"/>
      <feColorMatrix in="SourceAlpha" values="0 0 0 0 0 0 0 0 0 0 0 0 0 0 0 0 0 0 127 0" result="hardAlpha"/>
      <feOffset/>
      <feGaussianBlur stdDeviation=".854472"/>
      <feComposite in2="hardAlpha" operator="arithmetic" k2="-1" k3="1"/>
      <feColorMatrix values="0 0 0 0 1 0 0 0 0 1 0 0 0 0 1 0 0 0 0.25 0"/>
      <feBlend in2="shape" result="effect1_innerShadow_632_28374"/>
    </filter>
    <filter id="353z6m025__filter1_di_632_28374" x="40.0654" y="6.91024" width="79.0642" height="19.1951" filterUnits="userSpaceOnUse" color-interpolation-filters="sRGB">
      <feFlood flood-opacity="0" result="BackgroundImageFix"/>
      <feColorMatrix in="SourceAlpha" values="0 0 0 0 0 0 0 0 0 0 0 0 0 0 0 0 0 0 127 0" result="hardAlpha"/>
      <feOffset/>
      <feGaussianBlur stdDeviation="1.70894"/>
      <feComposite in2="hardAlpha" operator="out"/>
      <feColorMatrix values="0 0 0 0 0 0 0 0 0 0 0 0 0 0 0 0 0 0 0.6 0"/>
      <feBlend in2="BackgroundImageFix" result="effect1_dropShadow_632_28374"/>
      <feBlend in="SourceGraphic" in2="effect1_dropShadow_632_28374" result="shape"/>
      <feColorMatrix in="SourceAlpha" values="0 0 0 0 0 0 0 0 0 0 0 0 0 0 0 0 0 0 127 0" result="hardAlpha"/>
      <feOffset/>
      <feGaussianBlur stdDeviation="1.70894"/>
      <feComposite in2="hardAlpha" operator="arithmetic" k2="-1" k3="1"/>
      <feColorMatrix values="0 0 0 0 0.570833 0 0 0 0 0.160499 0 0 0 0 0.0309201 0 0 0 0.2 0"/>
      <feBlend in2="shape" result="effect2_innerShadow_632_28374"/>
    </filter>
  </defs>
</svg>
